<svg width="20" height="20" viewBox="0 0 533.5 544.3" xmlns="http://www.w3.org/2000/svg">
  <path fill="#4285F4" d="M533.5 278.4c0-17.4-1.5-34.1-4.3-50.4H272v95.3h147.5c-6.4 34.7-25.7 64.1-54.7 83.7v69.4h88.4c51.7-47.6 80.3-117.8 80.3-197.9z"/>
  <path fill="#34A853" d="M272 544.3c73.9 0 135.9-24.5 181.2-66.3l-88.4-69.4c-24.6 16.5-56.1 26.2-92.8 26.2-71.4 0-132-48.1-153.7-112.7H27.6v70.8C72.3 482.5 165.6 544.3 272 544.3z"/>
  <path fill="#FBBC05" d="M118.3 322.1c-10.2-30.7-10.2-63.8 0-94.5V156.8H27.6c-39.4 78.8-39.4 172.8 0 251.6l90.7-70.8z"/>
  <path fill="#EA4335" d="M272 107.7c39.9-.6 78.1 14.7 107.2 42.9l80-80C411.8 24.5 349.8 0 272 0 165.6 0 72.3 61.8 27.6 156.8l90.7 70.8C140 155.8 200.6 107.7 272 107.7z"/>
</svg>